<svg width="46" height="54" viewBox="0 0 46 54" fill="none" xmlns="http://www.w3.org/2000/svg">
<path d="M23.0001 44.3178C21.5224 44.3178 20.0452 43.7546 18.926 42.6289C17.884 41.581 17.2383 40.132 17.2383 38.5319C17.2383 36.9331 17.8834 35.4835 18.926 34.4343C20.0459 33.3086 21.523 32.7461 23.0001 32.7461C24.4773 32.7461 25.9544 33.3086 27.0743 34.4343C28.1169 35.4835 28.762 36.9331 28.762 38.5319C28.762 40.132 28.1162 41.581 27.0743 42.6289C25.955 43.7546 24.4779 44.3178 23.0001 44.3178V44.3178ZM23.0001 53.411C19.3344 53.411 15.668 52.6531 12.2621 51.1381C10.3614 50.2922 8.55864 49.2215 6.89404 47.9453C7.21905 46.1162 7.84472 44.3925 8.71627 42.8266C10.393 44.3288 12.284 45.5488 14.3138 46.451C17.0642 47.6753 20.0319 48.2868 23.0001 48.2868C25.9684 48.2868 28.9361 47.6753 31.6864 46.451C33.7162 45.5488 35.6072 44.3288 37.284 42.8266C38.1555 44.3925 38.7812 46.1162 39.1062 47.9453C37.4416 49.2215 35.6389 50.2922 33.7381 51.1381C30.3323 52.6531 26.6659 53.411 23.0001 53.411V53.411Z" fill="#150025"/>
<path d="M24.2745 0.342792C24.6804 0.579686 24.9969 0.911459 25.2117 1.29465L46 37.5027L41.5942 40.0699C39.7372 36.8018 36.968 34.038 33.7283 32.157C30.4319 30.2428 26.7163 29.2855 23 29.2855C19.2837 29.2855 15.5681 30.2428 12.2717 32.157C9.03202 34.038 6.26277 36.8018 4.40585 40.0699L0 37.5027L20.7883 1.29465C21.0031 0.911459 21.3196 0.579686 21.7255 0.342792C22.1187 0.113856 22.5594 0 23 0C23.4406 0 23.8813 0.113856 24.2745 0.342792V0.342792ZM23 24.1564C26.6816 24.1564 30.3626 24.9222 33.7824 26.4525L23 7.6712L12.2176 26.4525C15.6374 24.9222 19.3184 24.1564 23 24.1564Z" fill="#150025"/>
</svg>
