<svg width="132" height="110" viewBox="0 0 132 110" fill="none" xmlns="http://www.w3.org/2000/svg">
<path fill-rule="evenodd" clip-rule="evenodd" d="M60.5189 27.3119V17.0709H50.503V11.8815C50.503 9.0155 52.8209 6.6937 55.6801 6.6937H74.2103V10.378H55.6801C54.8519 10.378 54.1801 11.0513 54.1801 11.8815V13.3858H77.211V10.039H83.8888V7.03274H77.211V3.68589H55.6801C51.1629 3.68589 47.5024 7.35594 47.5024 11.8815V17.0709H43.8252V11.8815C43.8252 5.31931 49.1335 0 55.6801 0H80.8881V3.34685H83.8888V0H87.5651V17.0709H83.8888V13.7248H80.8881V17.0709H70.8722V27.3119H90.0805C92.9381 27.3119 95.256 29.6352 95.256 32.5013C95.256 33.15 95.1375 33.7711 94.9209 34.343C96.8713 35.0876 98.2567 36.9777 98.2567 39.195C98.2567 41.4106 96.8713 43.3023 94.9209 44.0453C95.1375 44.6172 95.256 45.2375 95.256 45.8863C95.256 48.7523 92.9381 51.0757 90.0805 51.0757H89.035C89.1788 51.5525 89.2571 52.0564 89.2571 52.58C89.2571 55.446 86.9392 57.7694 84.08 57.7694H77.5492H70.8722V61.8299C74.8251 63.7565 77.5492 67.8194 77.5492 72.5208L77.5508 81.3605C74.2688 82.4172 70.7956 83.0454 67.1967 83.1832V72.5208C67.1967 71.6899 66.5242 71.0173 65.696 71.0173C64.867 71.0173 64.196 71.6899 64.196 72.5208V83.1801C60.5971 83.0422 57.1239 82.4141 53.8419 81.3573V72.4789C53.8577 67.7949 56.5786 63.7509 60.5189 61.8299V58.0522C56.464 57.42 53.0904 54.7283 51.4956 51.0757H27.9424L27.3599 47.3906H50.5528C50.5204 47.0349 50.503 46.6768 50.503 46.3125V30.9978H3.67476V33.3338L10.6031 35.5804C10.5849 39.7748 10.4205 44.2109 10.7366 48.4037C10.8417 49.8019 11.0037 51.2119 11.2195 52.6251L11.5814 54.9945L5.42362 58.8697L5.69232 59.9343L12.9249 60.4001L13.7317 62.6902C14.5181 64.9209 15.434 67.0708 16.4677 69.1296C17.5274 71.2399 18.712 73.2655 20.0065 75.1928L21.342 77.1803L17.4634 83.2624L18.1565 84.1053L24.8335 81.4548L26.5475 83.1959C29.8343 86.5325 33.5707 89.4753 37.5884 91.8787L39.6455 93.1089L38.7438 100.153L39.7395 100.623L44.5665 95.4592L46.8346 96.2902C49.0434 97.0998 51.3154 97.7715 53.6341 98.2935C55.9266 98.8084 58.2627 99.1816 60.6272 99.3978L63.0683 99.622L65.176 106.316H66.2246L68.3268 99.622L70.7647 99.3978C75.4748 98.9677 80.0797 97.9268 84.5226 96.3037L86.7922 95.4743L91.62 100.638L92.6141 100.169L91.7116 93.1287L93.7687 91.8993C95.7997 90.6865 97.7414 89.3517 99.5796 87.9076C101.415 86.4659 103.171 84.8943 104.829 83.2117L106.545 81.4722L113.222 84.1196L113.916 83.2759L110.033 77.1898L111.374 75.1959C112.69 73.2385 113.876 71.217 114.918 69.1439C115.952 67.0851 116.87 64.9344 117.656 62.7037L118.464 60.4152L125.695 59.9462L125.964 58.8808L119.811 55.0127L120.171 52.641C120.387 51.2238 120.549 49.8114 120.655 48.4101C120.759 47.0357 120.812 45.6122 120.812 44.1404V35.5819L127.742 33.3346V30.9978H117.81L117.811 44.3812C117.811 73.2322 94.4784 96.6205 65.696 96.6205C36.9143 96.6205 13.5816 73.2322 13.5816 44.3812V34.0048H47.5024V37.6907H17.2587L17.2571 44.3812C17.2571 71.1956 38.9453 92.9362 65.696 92.9362C92.4474 92.9362 114.134 71.1972 114.136 44.3828V30.9978H111.133L111.135 44.3812C111.135 69.536 90.791 89.9284 65.696 89.9284C40.6017 89.9284 20.2578 69.536 20.2578 44.3812V40.6985H47.5024V44.3828L23.9333 44.3812C23.9333 67.501 42.6311 86.2441 65.696 86.2441C88.7616 86.2441 107.458 67.5026 107.459 44.3828V27.3119L131.417 27.3142V36.0026L124.487 38.2499V44.1404C124.487 47.2171 124.253 50.2376 123.803 53.1875L130.176 57.1943L128.596 63.442L121.116 63.9268C119.44 68.6781 117.178 73.149 114.417 77.2532L118.435 83.5516L114.344 88.5239L107.442 85.787C103.928 89.3533 99.9668 92.472 95.6488 95.0505L96.586 102.357L90.7689 105.101L85.7712 99.7567C81.1236 101.456 76.2042 102.585 71.0951 103.053L68.9139 110H62.4843L60.2968 103.053C55.1751 102.583 50.243 101.45 45.5859 99.7432L40.5899 105.089L34.7735 102.34L35.7084 95.0299C31.3982 92.4522 27.4445 89.3343 23.9349 85.7712L17.0335 88.5113L12.9454 83.5373L16.9632 77.2357C14.2051 73.1316 11.9465 68.6615 10.2719 63.9133L2.79044 63.4317L1.21227 57.184L7.58738 53.1717C7.13851 50.2273 6.90538 47.2108 6.90538 44.1396L6.93067 38.2491L0 36.0018V27.3142L60.5189 27.3119ZM67.1951 17.0709H64.196V27.3119H67.1967L67.1951 17.0709ZM19.771 7.40346H22.7708V10.4113H19.771V7.40346ZM108.868 7.40346H111.868V10.4113H108.868V7.40346ZM22.7471 2.6244L23.7342 5.69083L26.9522 5.68687L27.8657 8.49347L25.2578 10.3867L26.2567 13.4516L23.8756 15.1903L21.2709 13.29L18.6717 15.1927L16.2867 13.4579L17.2848 10.3867L14.6816 8.49664L15.5905 5.68687L18.8084 5.69083L19.7986 2.6244H22.7471ZM111.845 2.6244L112.832 5.69083L116.05 5.68687L116.964 8.49347L114.356 10.3867L115.355 13.4516L112.973 15.1903L110.368 13.29L107.77 15.1927L105.384 13.4579L106.383 10.3867L103.78 8.49664L104.689 5.68687L107.907 5.69083L108.896 2.6244H111.845ZM77.3287 30.9978C77.4702 31.4723 77.5445 31.9586 77.5492 32.4537V34.0048H90.0805C90.9087 34.0048 91.5813 33.3314 91.5813 32.5013C91.5813 31.6711 90.9087 30.9978 90.0805 30.9978H77.3287ZM77.5492 37.6907V40.6985H93.0796C93.9094 40.6985 94.5795 40.0243 94.5795 39.195C94.5795 38.3632 93.9094 37.6907 93.0796 37.6907H77.5492ZM77.5492 44.3843V47.3906H90.0805C90.9087 47.3906 91.5813 46.718 91.5813 45.8863C91.5813 45.0569 90.9087 44.3828 90.0805 44.3828L77.5492 44.3843ZM77.5492 51.0765V54.0835H84.08C84.9082 54.0835 85.5799 53.4101 85.5799 52.58C85.5799 51.7498 84.9082 51.0757 84.08 51.0757L77.5492 51.0765ZM73.8721 78.5911V72.5208C73.8721 68.5078 70.9955 65.1689 67.1967 64.4631V37.6907H64.196V64.4631C60.3956 65.1689 57.5182 68.5078 57.5182 72.5208V78.5872C58.5029 78.8224 59.5034 79.0165 60.5189 79.167V72.5208C60.5189 69.6548 62.8368 67.3314 65.696 67.3314C68.5551 67.3314 70.8722 69.6548 70.8722 72.5208V79.171C71.8869 79.0205 72.8882 78.8264 73.8721 78.5911ZM73.8721 54.0835H70.8722V37.6907H72.3722C72.8945 37.6907 73.3971 37.613 73.8721 37.4696V54.0835ZM72.3722 34.0048H60.5189V54.3021C56.8876 53.4656 54.1801 50.2059 54.1801 46.3125V30.9978H72.3722C73.2019 30.9978 73.8721 31.6711 73.8721 32.5013C73.8721 33.3314 73.2019 34.0048 72.3722 34.0048Z" fill="#1979CA"/>
</svg>
