<svg width="54" height="194" viewBox="0 0 54 194" fill="none" xmlns="http://www.w3.org/2000/svg">
<rect width="54" height="54" rx="6" fill="#006AFF"/>
<g filter="url(#filter0_d)">
<circle cx="27" cy="27" r="6" stroke="white" stroke-width="6"/>
<path fill-rule="evenodd" clip-rule="evenodd" d="M36 27H30C30 31.9706 34.0294 36 39 36C43.9706 36 48 31.9706 48 27H42C42 28.6569 40.6569 30 39 30C37.3431 30 36 28.6569 36 27Z" fill="white"/>
<path fill-rule="evenodd" clip-rule="evenodd" d="M27 48V42C18.7157 42 12 35.2843 12 27H6C6 38.598 15.402 48 27 48Z" fill="white"/>
<path fill-rule="evenodd" clip-rule="evenodd" d="M27 6V12C18.7157 12 12 18.7157 12 27H6C6 15.402 15.402 6 27 6Z" fill="white"/>
<path fill-rule="evenodd" clip-rule="evenodd" d="M27 6V12C35.2843 12 42 18.7157 42 27H48C48 15.402 38.598 6 27 6Z" fill="white"/>
<rect x="27" y="42" width="12" height="6" fill="white"/>
<circle cx="39" cy="45" r="3" fill="white"/>
</g>
<rect y="69" width="54" height="54" rx="6" fill="#006AFF"/>
<g filter="url(#filter1_d)">
<path d="M9 78H45V114H9V78Z" stroke="white" stroke-width="6" stroke-linejoin="round"/>
<path d="M9 84L27 102L45 84" stroke="white" stroke-width="6" stroke-linejoin="round"/>
</g>
<rect y="138" width="54" height="54" rx="6" fill="#006AFF"/>
<g filter="url(#filter2_d)">
<rect x="9" y="147" width="36" height="36" stroke="white" stroke-width="6" stroke-linejoin="round"/>
<path d="M36.5 162.402C38.5 163.557 38.5 166.443 36.5 167.598L24.5 174.526C22.5 175.681 20 174.238 20 171.928V158.072C20 155.762 22.5 154.319 24.5 155.474L36.5 162.402Z" fill="white"/>
</g>
<defs>
<filter id="filter0_d" x="2" y="6" width="50" height="50" filterUnits="userSpaceOnUse" color-interpolation-filters="sRGB">
<feFlood flood-opacity="0" result="BackgroundImageFix"/>
<feColorMatrix in="SourceAlpha" type="matrix" values="0 0 0 0 0 0 0 0 0 0 0 0 0 0 0 0 0 0 127 0"/>
<feOffset dy="4"/>
<feGaussianBlur stdDeviation="2"/>
<feColorMatrix type="matrix" values="0 0 0 0 0 0 0 0 0 0 0 0 0 0 0 0 0 0 0.25 0"/>
<feBlend mode="normal" in2="BackgroundImageFix" result="effect1_dropShadow"/>
<feBlend mode="normal" in="SourceGraphic" in2="effect1_dropShadow" result="shape"/>
</filter>
<filter id="filter1_d" x="2" y="75" width="50" height="50" filterUnits="userSpaceOnUse" color-interpolation-filters="sRGB">
<feFlood flood-opacity="0" result="BackgroundImageFix"/>
<feColorMatrix in="SourceAlpha" type="matrix" values="0 0 0 0 0 0 0 0 0 0 0 0 0 0 0 0 0 0 127 0"/>
<feOffset dy="4"/>
<feGaussianBlur stdDeviation="2"/>
<feColorMatrix type="matrix" values="0 0 0 0 0 0 0 0 0 0 0 0 0 0 0 0 0 0 0.25 0"/>
<feBlend mode="normal" in2="BackgroundImageFix" result="effect1_dropShadow"/>
<feBlend mode="normal" in="SourceGraphic" in2="effect1_dropShadow" result="shape"/>
</filter>
<filter id="filter2_d" x="2" y="144" width="50" height="50" filterUnits="userSpaceOnUse" color-interpolation-filters="sRGB">
<feFlood flood-opacity="0" result="BackgroundImageFix"/>
<feColorMatrix in="SourceAlpha" type="matrix" values="0 0 0 0 0 0 0 0 0 0 0 0 0 0 0 0 0 0 127 0"/>
<feOffset dy="4"/>
<feGaussianBlur stdDeviation="2"/>
<feColorMatrix type="matrix" values="0 0 0 0 0 0 0 0 0 0 0 0 0 0 0 0 0 0 0.25 0"/>
<feBlend mode="normal" in2="BackgroundImageFix" result="effect1_dropShadow"/>
<feBlend mode="normal" in="SourceGraphic" in2="effect1_dropShadow" result="shape"/>
</filter>
</defs>
</svg>
