<svg width="136" height="510" viewBox="0 0 136 510" fill="none" xmlns="http://www.w3.org/2000/svg">
<circle cx="111" cy="5" r="5" fill="#FD0743"/>
<circle cx="131" cy="5" r="5" fill="#FD0743"/>
<circle cx="131" cy="25" r="5" fill="#FD0743"/>
<circle cx="111" cy="45" r="5" fill="#FD0743"/>
<circle cx="131" cy="45" r="5" fill="#FD0743"/>
<rect x="70" width="6" height="50" fill="#FD0743"/>
<circle cx="131" cy="120" r="5" fill="#FD0743"/>
<circle cx="111" cy="120" r="5" fill="#006AFF"/>
<circle cx="131" cy="140" r="5" fill="#006AFF"/>
<circle cx="131" cy="160" r="5" fill="#FD0743"/>
<circle cx="111" cy="160" r="5" fill="#006AFF"/>
<rect x="70" y="115" width="6" height="50" fill="#006AFF"/>
<circle cx="111" cy="235" r="5" fill="#006AFF"/>
<circle cx="131" cy="235" r="5" fill="#006AFF"/>
<circle cx="131" cy="255" r="5" fill="#006AFF"/>
<circle cx="111" cy="275" r="5" fill="#006AFF"/>
<circle cx="131" cy="275" r="5" fill="#006AFF"/>
<rect x="70" y="230" width="6" height="50" fill="#FD0743"/>
<circle cx="111" cy="350" r="5" fill="#FD0743"/>
<circle cx="131" cy="350" r="5" fill="#FD0743"/>
<circle cx="131" cy="370" r="5" fill="#FD0743"/>
<circle cx="111" cy="390" r="5" fill="#FD0743"/>
<circle cx="131" cy="390" r="5" fill="#FD0743"/>
<rect x="70" y="345" width="6" height="50" fill="#006AFF"/>
<circle cx="111" cy="465" r="5" fill="#006AFF"/>
<circle cx="131" cy="465" r="5" fill="#006AFF"/>
<circle cx="131" cy="485" r="5" fill="#006AFF"/>
<circle cx="111" cy="505" r="5" fill="#006AFF"/>
<circle cx="131" cy="505" r="5" fill="#006AFF"/>
<rect x="70" y="460" width="6" height="50" fill="#006AFF"/>
<rect y="25" width="6" height="460" fill="#006AFF"/>
<rect x="3" y="22" width="61" height="6" fill="#006AFF"/>
<rect x="3" y="482" width="61" height="6" fill="#006AFF"/>
<rect x="1" y="367" width="63" height="6" fill="#006AFF"/>
<rect x="4" y="252" width="60" height="6" fill="#006AFF"/>
<rect x="4" y="137" width="60" height="6" fill="#006AFF"/>
<circle cx="3" cy="25" r="3" fill="#006AFF"/>
<circle cx="3" cy="485" r="3" fill="#006AFF"/>
<rect x="86" y="460" width="10" height="10" fill="#006AFF"/>
<rect x="86" y="480" width="10" height="10" fill="#006AFF"/>
<rect x="106" y="480" width="10" height="10" fill="#006AFF"/>
<rect x="86" y="500" width="10" height="10" fill="#006AFF"/>
<rect x="86" y="345" width="10" height="10" fill="#FD0743"/>
<rect x="86" y="365" width="10" height="10" fill="#FD0743"/>
<rect x="106" y="365" width="10" height="10" fill="#FD0743"/>
<rect x="86" y="385" width="10" height="10" fill="#FD0743"/>
<rect x="86" width="10" height="10" fill="#FD0743"/>
<rect x="86" y="20" width="10" height="10" fill="#FD0743"/>
<rect x="106" y="20" width="10" height="10" fill="#FD0743"/>
<rect x="86" y="40" width="10" height="10" fill="#FD0743"/>
<rect x="86" y="230" width="10" height="10" fill="#006AFF"/>
<rect x="86" y="250" width="10" height="10" fill="#006AFF"/>
<rect x="106" y="250" width="10" height="10" fill="#006AFF"/>
<rect x="86" y="270" width="10" height="10" fill="#006AFF"/>
<rect x="86" y="115" width="10" height="10" fill="#FD0743"/>
<rect x="86" y="135" width="10" height="10" fill="#006AFF"/>
<rect x="106" y="135" width="10" height="10" fill="#FD0743"/>
<rect x="86" y="155" width="10" height="10" fill="#FD0743"/>
</svg>
