<svg width="85" height="89" viewBox="0 0 85 89" fill="none" xmlns="http://www.w3.org/2000/svg">
<path fill-rule="evenodd" clip-rule="evenodd" d="M40.0322 54.9288V32.9571H23.5535V6.04963H17.5031L17.5043 26.9079H12.567V0H6.51714L6.51774 4.93732H0.468506V10.9877H6.51774V15.9239H0.468506V21.9727H6.51774V32.9571H10.8983V49.9925H17.5031V71.962H23.5523V49.9925H33.9829V54.9288H28.4895V82.9498H34.5387V60.9792H50.4622L50.4616 82.9498H56.5106L56.5114 54.9288H51.0175V49.9925H61.4477L61.447 71.962H67.4958L67.4968 49.9925H74.1024V32.9571H78.4823V21.9727H84.5316V15.9239H78.4823V10.9877H84.5316V4.93732H78.4823V0H72.4319L72.4331 26.9079H67.4958V6.04963H61.4464L61.4466 32.9571H44.9683V54.9288H40.0322ZM45.5237 65.913H39.4748V89H45.5241L45.5237 65.913ZM39.4748 6.04963H45.5241V21.9717H50.4614L50.46 0H56.5106V28.0219H28.4895L28.4887 0H34.5387V21.9717H39.4748V6.04963ZM68.0531 32.9571V43.9423H51.0175V39.0063H63.1172V32.9571H68.0531ZM16.9472 32.9571V43.9423H33.9829V39.0063H21.8837V32.9571H16.9472Z" fill="#150025"/>
</svg>
