<svg width="82" height="81" viewBox="0 0 82 81" fill="none" xmlns="http://www.w3.org/2000/svg">
<path fill-rule="evenodd" clip-rule="evenodd" d="M60.1332 47.5322V80.9596H54.6671V42.8102L65.5977 42.7486V33.3038H60.1347V38.0258H49.1997V52.3165H32.8003V38.0258H21.8655V33.3038H16.401V42.8102H27.3329L27.3337 80.9596H21.8668V47.5322H16.401V75.4923H10.9334V33.3038H5.46736V75.4923H0V0H32.8003V9.50711H49.1997V0H82V4.78433V75.4923H76.5326V33.3038H71.065L71.0666 75.4923H65.5984L65.5977 47.5322H60.1332ZM76.5326 28.5195V4.78433H54.6671V19.0134H65.5992V14.2907H60.1332V9.50711H65.5992H71.0666V23.7975H49.1997V14.2907H43.7337V26.5257L40.9997 28.8875L38.2663 26.5257V14.2907H32.8003V23.7975H10.9334V9.50711H21.8668V14.2907H16.401V19.0134H27.3329V4.78433H5.46736V28.5195H32.8003L38.2663 33.3038V47.5322H43.7337V33.3038L49.1997 28.5195H76.5326ZM43.7324 66.6069H49.1997V80.9596H43.7316L43.7324 66.6069ZM32.8003 66.6069H38.2679V80.9596H32.8003V66.6069ZM32.8003 57.039H49.1997V61.8226H32.8003V57.039Z" fill="#150025"/>
<path fill-rule="evenodd" clip-rule="evenodd" d="M50.5866 30.9122C52.664 32.719 53.9371 32.719 56.016 30.9122C53.9371 32.719 53.9371 33.8258 56.016 35.6334C53.9371 33.8258 52.664 33.8258 50.5866 35.6334C52.664 33.8258 52.664 32.719 50.5866 30.9122Z" fill="#00FF95"/>
<path fill-rule="evenodd" clip-rule="evenodd" d="M25.9855 30.9122C28.0629 32.719 29.3363 32.719 31.415 30.9122C29.3363 32.719 29.3363 33.8258 31.415 35.6334C29.3363 33.8258 28.0629 33.8258 25.9855 35.6334C28.0629 33.8258 28.0629 32.719 25.9855 30.9122Z" fill="#00FF95"/>
</svg>
