<svg width="107" height="91" viewBox="0 0 107 91" fill="none" xmlns="http://www.w3.org/2000/svg">
<path fill-rule="evenodd" clip-rule="evenodd" d="M53.4997 10.5014L63.916 11.62L72.7978 14.5515L85.2707 6.6886L94.2957 5.91493L94.2955 11.1679L93.2319 12.1151L91.5493 13.6139L79.1347 24.6724L63.7246 19.2808L53.4997 22.1582L43.2748 19.2808L27.8647 24.6724L15.4501 13.6139L13.7675 12.1151L12.7039 11.1679L12.7036 5.91493L21.7286 6.6886L34.2015 14.5515L43.0834 11.62L53.4997 10.5014ZM99.6054 -0.00012207L83.5962 1.37272L72.1013 8.61888L65.0106 6.2785L53.4997 5.04219L41.9888 6.2785L34.8981 8.61888L23.4031 1.37272L7.39398 -0.00012207V32.8551L1.61884 34.7706L0.000183105 42.5405L5.77484 47.8581L13.1689 45.4058L14.7875 37.6359L10.2745 33.4802L15.7001 21.0331L21.7855 26.4535L24.3501 36.071L30.0815 57.5661C34.3873 57.5661 39.025 57.7071 43.3026 57.4544C47.0108 57.2349 49.944 56.3868 53.4997 55.4897C57.0554 56.3868 59.9886 57.2349 63.6968 57.4544C67.9743 57.7071 72.6121 57.5661 76.9179 57.5661L82.6492 36.071L85.2139 26.4535L91.2993 21.0331L96.7248 33.4802L92.2118 37.6359L93.8305 45.4058L101.225 47.8581L106.999 42.5405L105.381 34.7706L99.6054 32.8551V-0.00012207ZM53.4997 32.5662L49.542 26.6678L43.464 24.9572L33.6871 28.378L30.3398 37.8298L31.6753 42.8377L40.0771 38.8836L53.4997 49.418L66.9223 38.8836L75.3241 42.8377L76.6596 37.8298L73.3123 28.378L63.5354 24.9572L57.4574 26.6678L53.4997 32.5662ZM53.4997 91.0006C49.2443 91.0006 44.9891 90.4108 37.4945 89.2313V73.6583L47.7892 85.3156H53.4997H59.2101L69.5049 73.6583V89.2313C62.0102 90.4108 57.7551 91.0006 53.4997 91.0006ZM36.0394 46.7646L39.3865 45.1896L47.3582 51.4456C44.8452 52.0795 41.4278 52.1426 37.9112 52.1433C36.6196 50.7353 36.1856 48.8332 36.0394 46.7646ZM70.9599 46.7646L67.6129 45.1896L59.6412 51.4456C62.1542 52.0795 65.5716 52.1426 69.0881 52.1433C70.3798 50.7353 70.8138 48.8332 70.9599 46.7646Z" fill="#150025"/>
<path fill-rule="evenodd" clip-rule="evenodd" d="M53.5 77.4385H56.6017L65.5861 69.2922L55.8528 68.5268L53.5 71.0331L51.1472 68.5268L41.4138 69.2922L50.3982 77.4385H53.5Z" fill="#FC0843"/>
</svg>
